# xmcd
#
# Track frame offsets: 
#        150
#        17736
#        34512
#        51269
#        68156
#        83358
#        96700
#        111412
#        129181
#        143166
#        160595
#        177250
#        192508
#        209270
#        225622
#        242575
#        257163
#        274384
#        289465
#        305173
#
# Disc length: 4266 seconds
#
# Revision: 4
# Processed by: cddbd v1.5.2PL0 Copyright (c) Steve Scherf et al.
# Submitted via: ExactAudioCopy v0.99pb4
#
DISCID=2610a814
DTITLE=Bravo Hits 31 - CD 2
DYEAR=2000
DGENRE=Pop
TTITLE0=Craig David - 7 Days
TTITLE1=Spiller - Groovejet (If This Ain´t Love)
TTITLE2=Music Instructor feat. Dean - Super Fly (Upper MC)
TTITLE3=Darude - Sandstorm
TTITLE4=Mauro Picotto - Komodo-Save A Soul
TTITLE5=Elektrochemie LK - Schall
TTITLE6=Future Breeze - Smile
TTITLE7=Delerium feat. Sarah McLachlan - Silence
TTITLE8=X-Perience - Island Of Dreams
TTITLE9=Baby D. - Let Me Be Your Fantasy
TTITLE10=Modjo - Lady (Hear Me Tonight)
TTITLE11=Lace - Ring Ring
TTITLE12=ATB feat. York - The Fields Of Love
TTITLE13=Rollergirl - Superstar
TTITLE14=Cherubia - Devil In Disguise
TTITLE15=Bomfunk MC's - B-Boys and Fly Girls
TTITLE16=Dynamite Deluxe - Grüne Brille
TTITLE17=Papa Roach - Last Resort
TTITLE18=Die Toten Hosen - Warum werde ich nicht satt?
TTITLE19=Stefan Raab feat. DJ Bundeskanzler - Ho mir ma ne Flasche Bie
TTITLE19=r
EXTD=
EXTT0=
EXTT1=
EXTT2=
EXTT3=
EXTT4=
EXTT5=
EXTT6=
EXTT7=
EXTT8=
EXTT9=
EXTT10=
EXTT11=
EXTT12=
EXTT13=
EXTT14=
EXTT15=
EXTT16=
EXTT17=
EXTT18=
EXTT19=
PLAYORDER=
